<svg width="23" height="22" viewBox="0 0 23 22" fill="none" xmlns="http://www.w3.org/2000/svg">
<path d="M22.2 2.6C22 4 21.2 5.2 20.4 6.3C19.9 6.9 19.4 7.5 18.9 8.1C16.6 10.6 14 12.9 11.3 15C11 15.2 10.7 15.4 10.4 15.7C10.3 15.7 10.3 15.9 10.3 15.9C10.6 17.8 9.59995 20.2 7.19995 21.3C6.29995 21.7 5.39995 21.9 4.39995 22C4.29995 22 4.29995 22 4.19995 22C3.79995 22 3.39995 22 2.99995 22C2.99995 22 2.99995 22 2.89995 22C2.19995 21.9 1.49995 21.8 0.799952 21.5C0.499952 21.4 0.299951 21.3 0.199951 21C0.199951 20.9 0.199951 20.8 0.199951 20.7C0.299951 20.5 0.399951 20.4 0.499951 20.2C0.999951 19.6 1.19995 18.9 1.29995 18.2C1.39995 17.4 1.39995 16.7 1.59995 15.9C1.99995 14.1 3.59995 12.6 5.49995 12.4C5.89995 12.3 6.29995 12.4 6.69995 12.4C6.79995 12.4 6.89995 12.4 6.99995 12.3C7.99995 11 8.89995 9.7 9.99995 8.4C11.6 6.4 13.3 4.5 15.2 2.8C16 1.8 17 1 18.2 0.5C18.6 0.3 19.1 0.2 19.6 0C19.8 0 20 0 20.2 0C20.3 0 20.3 0 20.4 0C21.3 0.2 21.8 0.7 22.1 1.5C22.1 1.6 22.2 1.8 22.2 1.9C22.2 2.2 22.2 2.4 22.2 2.6ZM12.7 12.1C14.3 10.8 15.8 9.4 17.2 7.9C18.2 6.8 19.2 5.7 20.1 4.5C20.5 3.9 20.7999 3.3 21 2.5C21.1 1.7 20.5999 1.1 19.7999 1.3C19.4 1.4 19 1.5 18.7 1.7C17.7 2.2 16.8 2.9 16 3.7C14.4 5.1 13 6.7 11.7 8.3C11.3 8.8 10.9 9.3 10.5 9.7C11.2 10.6 11.9 11.3 12.7 12.1ZM1.89995 20.5C1.99995 20.5 1.99995 20.5 2.09995 20.6C3.49995 20.9 4.89995 20.8 6.29995 20.3C7.79995 19.7 8.79995 18.7 9.09995 17C9.29995 15.7 8.59995 14.3 7.39995 13.8C5.69995 13.1 3.49995 14.2 2.99995 16C2.89995 16.5 2.79995 17 2.79995 17.5C2.59995 18.6 2.49995 19.6 1.89995 20.5ZM9.79995 14.4C10.4 13.9 11 13.4 11.6 12.9C10.9 12.2 10.2 11.5 9.49995 10.8C8.99995 11.4 8.59995 12 8.09995 12.7C8.89995 13.1 9.39995 13.7 9.79995 14.4Z" fill="black"/>
</svg>
