<svg width="27" height="28" viewBox="0 0 27 28" fill="none" xmlns="http://www.w3.org/2000/svg">
<path d="M23.625 11.8015C23.625 19.546 13.5 26.1842 13.5 26.1842C13.5 26.1842 3.375 19.546 3.375 11.8015C3.375 9.16067 4.44174 6.628 6.34054 4.76065C8.23935 2.8933 10.8147 1.84424 13.5 1.84424C16.1853 1.84424 18.7606 2.8933 20.6595 4.76065C22.5583 6.628 23.625 9.16067 23.625 11.8015Z" stroke="white" stroke-width="1.5" stroke-linecap="round" stroke-linejoin="round"/>
<path d="M13.5 15.1221C15.364 15.1221 16.875 13.6361 16.875 11.803C16.875 9.96989 15.364 8.48389 13.5 8.48389C11.636 8.48389 10.125 9.96989 10.125 11.803C10.125 13.6361 11.636 15.1221 13.5 15.1221Z" stroke="white" stroke-width="1.5" stroke-linecap="round" stroke-linejoin="round"/>
</svg>
