<svg width="25" height="25" viewBox="0 0 25 25" fill="none" xmlns="http://www.w3.org/2000/svg">
<circle cx="12.5" cy="12.5" r="12.5" fill="#B99450"/>
<path d="M12.5 1.04199C10.2337 1.04199 8.01837 1.71401 6.13405 2.97307C4.24974 4.23213 2.7811 6.02167 1.91384 8.11541C1.04659 10.2091 0.819678 12.513 1.2618 14.7357C1.70392 16.9584 2.79522 19.0001 4.3977 20.6026C6.00017 22.2051 8.04185 23.2964 10.2646 23.7385C12.4873 24.1806 14.7911 23.9537 16.8849 23.0864C18.9786 22.2192 20.7682 20.7505 22.0272 18.8662C23.2863 16.9819 23.9583 14.7666 23.9583 12.5003C23.955 9.46239 22.7467 6.54983 20.5986 4.40169C18.4505 2.25355 15.5379 1.04528 12.5 1.04199V1.04199ZM12.5 22.0489C10.6114 22.0489 8.7653 21.4889 7.19504 20.4397C5.62478 19.3905 4.40091 17.8992 3.6782 16.1544C2.95549 14.4096 2.76639 12.4897 3.13483 10.6375C3.50326 8.78523 4.41268 7.08383 5.74808 5.74844C7.08347 4.41304 8.78487 3.50362 10.6371 3.13519C12.4894 2.76675 14.4093 2.95585 16.1541 3.67856C17.8988 4.40127 19.3901 5.62514 20.4393 7.1954C21.4886 8.76566 22.0486 10.6118 22.0486 12.5003C22.0458 15.0319 21.0389 17.459 19.2488 19.2491C17.4587 21.0392 15.0316 22.0462 12.5 22.0489ZM17.2743 12.5003C17.2743 12.7536 17.1737 12.9964 16.9946 13.1755C16.8155 13.3546 16.5727 13.4552 16.3194 13.4552H13.4548V16.3198C13.4548 16.573 13.3542 16.8159 13.1752 16.995C12.9961 17.174 12.7532 17.2746 12.5 17.2746C12.2467 17.2746 12.0038 17.174 11.8248 16.995C11.6457 16.8159 11.5451 16.573 11.5451 16.3198V13.4552H8.68052C8.42727 13.4552 8.1844 13.3546 8.00533 13.1755C7.82626 12.9964 7.72566 12.7536 7.72566 12.5003C7.72566 12.2471 7.82626 12.0042 8.00533 11.8251C8.1844 11.6461 8.42727 11.5455 8.68052 11.5455H11.5451V8.68088C11.5451 8.42763 11.6457 8.18476 11.8248 8.00569C12.0038 7.82662 12.2467 7.72602 12.5 7.72602C12.7532 7.72602 12.9961 7.82662 13.1752 8.00569C13.3542 8.18476 13.4548 8.42763 13.4548 8.68088V11.5455H16.3194C16.5727 11.5455 16.8155 11.6461 16.9946 11.8251C17.1737 12.0042 17.2743 12.2471 17.2743 12.5003Z" fill="white"/>
</svg>
